<?xml version="1.0" standalone="no"?>
<!DOCTYPE svg PUBLIC "-//W3C//DTD SVG 20010904//EN"
 "http://www.w3.org/TR/2001/REC-SVG-20010904/DTD/svg10.dtd">
<svg version="1.0" xmlns="http://www.w3.org/2000/svg"
 width="1080.000000pt" height="1080.000000pt" viewBox="0 0 1080.000000 1080.000000"
 preserveAspectRatio="xMidYMid meet">

<g transform="translate(0.000000,1080.000000) scale(0.100000,-0.100000)"
fill="#000000" stroke="none">
<path d="M4587 9563 c-4 -3 -7 -93 -7 -199 l0 -193 31 -16 c25 -13 36 -14 66
-4 23 7 66 9 127 4 50 -3 113 -7 140 -8 l50 -2 -1 197 c0 145 -3 201 -13 213
-10 12 -44 15 -200 15 -102 0 -190 -3 -193 -7z"/>
<path d="M1562 9158 c-8 -8 -12 -65 -12 -192 1 -245 -19 -226 234 -226 l196 0
0 201 c0 180 -2 203 -17 215 -24 18 -383 20 -401 2z"/>
<path d="M5048 9137 l-38 -9 0 -187 c0 -167 2 -190 18 -202 14 -12 63 -14 287
-11 329 4 298 4 425 -6 58 -5 108 -6 113 -2 4 3 6 94 5 201 l-3 194 -30 14
c-24 12 -100 15 -385 16 -195 1 -372 -2 -392 -8z"/>
<path d="M2078 8733 l-88 -4 0 -198 c0 -230 -2 -226 88 -220 89 6 589 1 664
-6 100 -10 98 -14 98 207 l0 184 -32 16 c-27 12 -80 15 -273 17 -132 0 -269 3
-305 5 -36 1 -104 1 -152 -1z"/>
<path d="M5883 8692 c-9 -5 -12 -63 -14 -201 -1 -212 0 -217 56 -205 17 3 93
8 170 9 115 3 144 1 167 -13 l28 -16 2 -181 c0 -99 0 -190 -1 -202 l-2 -23
358 0 c197 0 390 -3 428 -7 64 -6 69 -5 56 10 -14 17 -12 52 8 137 5 25 10 93
11 151 0 102 -1 106 -25 119 -17 9 -40 11 -77 5 -29 -4 -108 -9 -175 -11 -162
-5 -153 -17 -153 226 0 131 -4 190 -12 198 -14 14 -804 18 -825 4z"/>
<path d="M3586 8293 c-4 -4 -167 -7 -362 -8 -304 0 -356 -2 -364 -15 -11 -16
-14 -358 -4 -384 5 -14 32 -16 199 -16 163 0 196 -3 209 -16 13 -13 16 -45 16
-195 0 -105 -4 -188 -10 -200 -10 -18 -23 -19 -201 -19 -258 0 -239 17 -239
-207 0 -102 4 -182 10 -194 9 -15 22 -19 63 -20 577 -5 771 -10 783 -20 11 -9
14 -49 14 -184 0 -95 3 -187 6 -204 l7 -31 198 0 199 0 0 -215 0 -215 431 0
432 0 -8 -650 -7 -650 216 0 216 0 0 -215 0 -215 353 0 c193 0 484 -3 645 -7
l292 -6 0 -214 0 -213 215 0 215 0 0 215 0 215 215 0 215 0 0 215 0 215 174 0
c95 0 194 -3 220 -6 l46 -7 -5 -41 -5 -41 13 33 c7 18 19 37 27 42 12 8 10 10
-7 10 l-23 0 0 650 0 650 -217 0 -216 0 6 213 6 214 -601 6 c-331 4 -817 7
-1080 7 l-478 0 0 -215 0 -215 -93 0 c-52 0 -149 3 -215 7 l-122 6 0 429 0
428 -214 0 -213 0 5 205 5 205 -200 0 c-141 0 -202 3 -211 12 -8 8 -12 67 -12
198 0 247 14 233 -217 230 -92 -1 -175 -2 -184 -1 -27 2 -33 45 -34 233 0 165
-2 178 -20 192 -21 16 -76 21 -89 9z m2244 -2583 l0 -430 -221 0 -222 0 6 68
c4 37 7 230 7 430 l0 362 215 0 215 0 0 -430z m1720 -10 l0 -430 -215 0 -215
0 0 430 0 430 215 0 215 0 0 -430z"/>
<path d="M692 7858 c-7 -15 -10 -80 -9 -187 2 -161 3 -165 29 -193 l26 -28
174 0 175 0 11 25 c8 17 12 90 12 204 0 161 -2 180 -17 186 -10 4 -102 9 -204
12 -185 4 -185 4 -197 -19z"/>
<path d="M7564 7620 c0 -113 2 -159 3 -102 2 56 2 148 0 205 -1 56 -3 10 -3
-103z"/>
<path d="M1163 7427 c-18 -6 -34 -20 -37 -31 -8 -28 -8 -330 0 -350 5 -14 50
-16 394 -16 229 0 399 -4 414 -10 14 -5 26 -6 26 -2 5 131 2 400 -3 410 -10
16 -745 15 -794 -1z"/>
<path d="M2023 7013 l-53 -4 0 -187 c0 -215 3 -232 36 -232 12 0 26 5 29 10 3
6 26 10 50 10 24 0 47 -4 50 -10 7 -11 641 -15 669 -4 14 5 16 33 16 205 l0
198 -287 5 c-159 3 -326 7 -373 9 -47 2 -109 2 -137 0z"/>
<path d="M1686 6583 c-61 -2 -116 -9 -123 -15 -18 -14 -19 -378 -1 -396 8 -8
65 -12 188 -12 158 0 179 2 193 18 15 16 16 44 14 208 l-2 189 -40 7 c-22 4
-58 6 -80 5 -22 -1 -89 -3 -149 -4z"/>
<path d="M8424 6385 c0 -60 1 -84 3 -52 2 32 2 81 0 110 -2 29 -3 3 -3 -58z"/>
<path d="M3782 5283 c48 -2 129 -2 180 0 51 1 12 3 -87 3 -99 0 -141 -2 -93
-3z"/>
<path d="M8411 4874 c0 -11 3 -14 6 -6 3 7 2 16 -1 19 -3 4 -6 -2 -5 -13z"/>
<path d="M4158 4853 c12 -2 32 -2 45 0 12 2 2 4 -23 4 -25 0 -35 -2 -22 -4z"/>
<path d="M8368 4823 c7 -3 16 -2 19 1 4 3 -2 6 -13 5 -11 0 -14 -3 -6 -6z"/>
<path d="M4570 4420 c18 -12 68 -12 95 0 14 6 0 9 -45 9 -45 1 -60 -2 -50 -9z"/>
<path d="M4823 4413 c26 -2 68 -2 95 0 26 2 4 3 -48 3 -52 0 -74 -1 -47 -3z"/>
<path d="M5810 3347 l0 -217 -215 0 -215 0 0 -215 0 -215 -215 0 -215 0 0
-123 c0 -68 -3 -165 -6 -215 l-7 -92 -213 0 -214 0 0 -214 0 -215 202 -1 c268
-1 248 18 248 -227 0 -140 3 -188 13 -198 11 -10 96 -13 414 -14 360 -1 401 0
407 15 3 8 6 92 6 184 0 180 6 209 46 231 20 10 34 10 72 0 33 -8 151 -11 391
-11 242 1 347 -2 355 -10 7 -7 10 -68 8 -193 -2 -145 0 -186 12 -200 13 -16
42 -18 357 -21 189 -2 364 -7 389 -11 38 -6 50 -3 73 15 l27 21 0 184 c0 179
1 184 22 199 18 13 56 16 209 16 l186 0 11 25 c8 17 12 88 12 194 0 215 -18
199 232 204 l183 2 -212 3 -213 2 0 429 c0 236 3 431 8 433 4 2 4 37 1 78 l-5
75 -2 -78 -2 -77 -212 2 -213 3 3 218 3 217 -648 0 c-356 0 -746 3 -865 7
l-218 6 0 -216z"/>
<path d="M8390 3023 c0 -35 3 -44 10 -33 13 20 13 67 0 75 -6 4 -10 -12 -10
-42z"/>
<path d="M3713 2273 c9 -2 25 -2 35 0 9 3 1 5 -18 5 -19 0 -27 -2 -17 -5z"/>
<path d="M4133 1843 c9 -2 25 -2 35 0 9 3 1 5 -18 5 -19 0 -27 -2 -17 -5z"/>
</g>
</svg>
